<svg id="uuid-34d555a2-63de-492f-b86f-77e254434c0e" xmlns="http://www.w3.org/2000/svg" viewBox="0 0 246.98 309.77" xmlns:xlink="http://www.w3.org/1999/xlink"><defs><clipPath id="uuid-f065f824-96b3-4875-a3e4-f48b90155547"><circle cx="123.49" cy="171.76" r="113.99" style="fill:none;"></circle></clipPath></defs><g id="uuid-b8e27238-e788-4994-917b-e0dde488111d"><g style="clip-path:url(#uuid-f065f824-96b3-4875-a3e4-f48b90155547);"><rect y="48.27" width="246.98" height="246.98" style="fill:#fcebb8;"></rect></g><circle cx="123.49" cy="171.76" r="104.55" style="fill:none; stroke:#231f20; stroke-miterlimit:10; stroke-width:4px;"></circle><path d="m57.85,140.77c-1.29,1.07-2.74,1.73-4.36,1.98s-3.25.06-4.9-.59c-1.64-.65-2.97-1.62-3.98-2.92-1.01-1.29-1.62-2.77-1.82-4.44-.21-1.67.02-3.35.69-5.04.52-1.32,1.22-2.44,2.1-3.36.88-.92,1.9-1.6,3.08-2.03l.9,2.17c-1.84.75-3.14,2.07-3.89,3.97-.5,1.26-.67,2.51-.5,3.74.16,1.24.63,2.34,1.39,3.3.76.96,1.76,1.69,2.99,2.17,1.22.48,2.45.64,3.66.46,1.22-.18,2.31-.67,3.27-1.46s1.7-1.82,2.19-3.07c.75-1.89.7-3.74-.15-5.57l2.14-.97c.56,1.12.85,2.32.87,3.6.02,1.28-.24,2.58-.76,3.91-.67,1.69-1.65,3.07-2.94,4.14Z" style="fill:#231f20;"></path><path d="m52.68,113.23l1.62-2.04,12.48,9.92,6.13-7.71,1.77,1.41-7.75,9.75-14.25-11.32Z" style="fill:#231f20;"></path><path d="m68.08,96.71l2.02-1.64,11.47,14.13-2.02,1.64-11.47-14.13Z" style="fill:#231f20;"></path><path d="m95.19,80.98l7.48,16.59-1.94.88-15.53-7.89,5.58,12.37-2.37,1.07-7.48-16.59,1.94-.88,15.53,7.89-5.58-12.38,2.37-1.07Z" style="fill:#231f20;"></path><path d="m108.1,77.96l2.57-.42,2.97,17.96-2.56.43-2.97-17.96Z" style="fill:#231f20;"></path><path d="m125.47,93.72c-1.4-.92-2.46-2.11-3.18-3.58s-1.01-3.09-.88-4.85.67-3.32,1.61-4.66c.94-1.34,2.17-2.36,3.7-3.05,1.53-.69,3.2-.96,5.02-.82,1.42.11,2.69.45,3.83,1.01,1.14.57,2.09,1.35,2.84,2.34l-1.81,1.5c-1.25-1.54-2.9-2.39-4.94-2.55-1.35-.1-2.59.11-3.72.62-1.14.52-2.05,1.29-2.75,2.3s-1.09,2.18-1.2,3.49c-.1,1.31.11,2.52.64,3.64.53,1.11,1.32,2.01,2.36,2.7,1.04.69,2.24,1.09,3.58,1.19,2.02.16,3.78-.44,5.28-1.78l1.56,1.76c-.9.87-1.96,1.5-3.18,1.89-1.22.39-2.54.53-3.96.42-1.81-.14-3.42-.67-4.82-1.58Z" style="fill:#231f20;"></path><path d="m155.66,97.48l-8.95-3.66-3.58,3.45-2.48-1.01,14.52-13.73,2.38.97.76,19.98-2.53-1.03-.13-4.97Zm-.06-2.27l-.26-9.74-7.01,6.77,7.27,2.97Z" style="fill:#231f20;"></path><path d="m174.37,92.87l2.01,1.64-10.08,12.34,7.63,6.23-1.43,1.75-9.65-7.88,11.51-14.1Z" style="fill:#231f20;"></path><path d="m191.23,108.95l1.51,2.12-12.99,9.24,5.71,8.03-1.84,1.31-7.22-10.15,14.83-10.55Z" style="fill:#231f20;"></path><path d="m193.76,137.73l-5.88,2.24-.92-2.41,5.93-2.26,8.51-10.97.99,2.6-6.89,8.86,11.05,2.05.92,2.41-13.7-2.52Z" style="fill:#231f20;"></path><path d="m77.89,233.09l-4.78-4.01,1.46-1.73,11.53,9.68-1.46,1.73-4.78-4.01-10.25,12.2-1.97-1.66,10.25-12.2Z" style="fill:#231f20;"></path><path d="m95.96,259.64l-.94,2.06-12-5.51,7.59-16.54,11.67,5.36-.94,2.06-9.31-4.27-2.33,5.08,8.29,3.81-.92,2.01-8.29-3.81-2.45,5.34,9.64,4.42Z" style="fill:#231f20;"></path><path d="m107.58,264.54c-1.2-.61-2.1-1.31-2.72-2.08l1.26-1.86c.59.72,1.39,1.36,2.41,1.9,1.01.55,2.08.91,3.22,1.08,1.49.23,2.64.14,3.46-.25.81-.39,1.28-1.01,1.41-1.85.09-.62-.03-1.15-.38-1.6s-.79-.82-1.35-1.11c-.56-.3-1.36-.65-2.4-1.08-1.3-.53-2.35-1.02-3.13-1.47-.78-.45-1.42-1.06-1.91-1.83-.49-.77-.65-1.72-.47-2.87.15-.96.53-1.79,1.15-2.48.62-.69,1.48-1.2,2.58-1.5s2.41-.34,3.94-.11c1.06.16,2.09.46,3.07.89.99.43,1.81.96,2.47,1.58l-1.16,1.93c-.68-.59-1.43-1.08-2.25-1.46-.82-.38-1.64-.63-2.46-.76-1.46-.22-2.59-.12-3.4.3-.81.42-1.28,1.05-1.41,1.89-.09.62.04,1.15.39,1.6.35.45.82.83,1.39,1.13s1.37.66,2.38,1.06c1.3.53,2.34,1.02,3.12,1.47.77.45,1.41,1.05,1.9,1.81.49.76.65,1.7.48,2.83-.14.94-.53,1.76-1.16,2.47-.63.7-1.51,1.2-2.62,1.5-1.12.29-2.43.33-3.96.09-1.35-.21-2.63-.61-3.82-1.23Z" style="fill:#231f20;"></path><path d="m130.95,250.33l-6.2.67-.24-2.25,14.97-1.63.24,2.25-6.2.67,1.72,15.84-2.56.28-1.72-15.85Z" style="fill:#231f20;"></path><path d="m162.64,255.61l.84,2.1-12.28,4.88-6.72-16.91,11.94-4.74.84,2.1-9.52,3.78,2.06,5.19,8.48-3.37.82,2.05-8.48,3.37,2.17,5.46,9.86-3.92Z" style="fill:#231f20;"></path><path d="m162.25,237.69l5.9-4.9c1.48-1.23,3.04-2.02,4.67-2.39,1.63-.36,3.21-.28,4.72.26,1.51.54,2.84,1.49,3.98,2.86,1.14,1.38,1.83,2.86,2.08,4.44.25,1.59.04,3.15-.62,4.69-.66,1.54-1.73,2.92-3.21,4.15l-5.9,4.9-11.62-14.01Zm15.96,7.47c1.13-.94,1.95-1.99,2.44-3.14.5-1.15.65-2.32.46-3.5-.19-1.18-.72-2.29-1.58-3.33-.86-1.04-1.86-1.76-2.98-2.17s-2.3-.47-3.53-.2c-1.23.27-2.41.88-3.54,1.82l-3.78,3.14,8.73,10.53,3.78-3.14Z" style="fill:#231f20;"></path><rect x="41.27" y="172.37" width="7.56" height="7.56" transform="translate(-47.65 332.56) rotate(-135)" style="fill:#231f20;"></rect><rect x="195.04" y="172.37" width="7.56" height="7.56" transform="translate(214.86 441.3) rotate(-135)" style="fill:#231f20;"></rect><path d="m108.55,148.82l11.78-24.26c.22-.48.7-.77,1.24-.77s1.01.29,1.24.77l11.78,24.26c.39.82,1.17,1.39,2.08,1.51l26.31,3.9c.52.07.94.43,1.1.93s.03,1.03-.34,1.41l-19.06,18.91c-.64.64-.93,1.53-.77,2.4l4.5,26.72c.09.52-.12,1.03-.55,1.34s-1,.34-1.44.1l-23.52-12.57c-.81-.43-1.79-.43-2.59,0l-23.52,12.57c-.46.24-1.03.21-1.44-.1s-.64-.82-.55-1.34l4.5-26.72c.15-.88-.14-1.79-.77-2.4l-19.08-18.91-1.92,1.92,1.92-1.94c-.38-.36-.5-.91-.34-1.41s.58-.86,1.1-.93l26.31-3.88c.89-.14,1.67-.7,2.08-1.51Zm36.54,59.64c1.39.74,3.07.64,4.34-.29s1.92-2.49,1.67-4.04l-4.52-26.7,19.09-18.92c1.12-1.1,1.49-2.73,1.01-4.21s-1.77-2.56-3.31-2.8l-26.32-3.88-11.78-24.26c-.69-1.43-2.13-2.32-3.71-2.32s-3.02.89-3.71,2.32l-11.78,24.26-26.31,3.9c-1.55.22-2.83,1.31-3.31,2.8s-.09,3.11,1.01,4.21l19.08,18.91-4.5,26.7c-.26,1.55.38,3.11,1.67,4.04s2.97,1.03,4.34.29l23.52-12.57,23.52,12.57h-.02Z" style="fill:#010101;"></path></g></svg>