<?xml version="1.0" encoding="utf-8"?>
<!-- Generator: Adobe Illustrator 27.4.0, SVG Export Plug-In . SVG Version: 6.00 Build 0)  -->
<svg version="1.1" id="Layer_1" xmlns="http://www.w3.org/2000/svg" xmlns:xlink="http://www.w3.org/1999/xlink" x="0px" y="0px"
	 viewBox="0 0 412.8 395.1" style="enable-background:new 0 0 412.8 395.1;" xml:space="preserve">
<style type="text/css">
	.st0{fill:none;stroke:#231F20;stroke-width:2.368;stroke-miterlimit:10;}
	.st1{fill:none;stroke:#231F20;stroke-width:2.1369;stroke-miterlimit:10;}
	.st2{fill:none;stroke:#231F20;stroke-width:2.2775;stroke-miterlimit:10;}
	.st3{fill:none;stroke:#231F20;stroke-width:2.273;stroke-miterlimit:10;}
	.st4{fill:none;stroke:#E585A6;stroke-width:2.5627;stroke-miterlimit:10;}
</style>
<line class="st0" x1="226.7" y1="287.9" x2="186.9" y2="287.9"/>
<polyline class="st0" points="158.9,287.9 126.4,287.9 126.4,85.8 289,85.8 289,287.9 254.9,287.9 "/>
<line class="st0" x1="149" y1="112.2" x2="265.7" y2="112.2"/>
<line class="st1" x1="159.9" y1="141.5" x2="254.9" y2="141.5"/>
<line class="st2" x1="153.4" y1="171.5" x2="261.3" y2="171.5"/>
<line class="st2" x1="237" y1="201.5" x2="261.3" y2="201.5"/>
<line class="st2" x1="153.4" y1="201.5" x2="177.7" y2="201.5"/>
<line class="st2" x1="143.9" y1="231.5" x2="168.2" y2="231.5"/>
<line class="st2" x1="245.9" y1="231.5" x2="270.2" y2="231.5"/>
<line class="st2" x1="158.1" y1="261.5" x2="173" y2="261.5"/>
<line class="st2" x1="241.8" y1="261.5" x2="256.6" y2="261.5"/>
<circle class="st3" cx="207.1" cy="225.7" r="38.9"/>
<polyline class="st3" points="177.7,251.1 153.4,298.5 168.2,294.5 174.4,310.5 199.7,264.6 "/>
<polyline class="st3" points="235.9,251.1 260.2,298.5 245.4,294.5 239.2,310.5 213.9,264.6 "/>
<circle class="st4" cx="207.3" cy="198.5" r="166.2"/>
</svg>
